<svg width="292" height="57" viewBox="0 0 292 57" fill="none" xmlns="http://www.w3.org/2000/svg">
<path d="M136.497 45.3929H57.5098L63.0123 55.5714H142L136.497 45.3929Z" fill="#EA4F2A"/>
<path d="M129.93 33.0714H50.7651L56.2676 43.25H135.255L129.93 33.0714Z" fill="#EA4F2A"/>
<path d="M123.185 20.75H44.1973L49.5223 30.9286H128.687L123.185 20.75Z" fill="#EA4F2A"/>
<path d="M116.44 8.42856H37.4526L42.9551 18.6071H121.943L116.44 8.42856Z" fill="#EA4F2A"/>
<path d="M0 55.5714H13.845L41.18 20.0357L35.3225 9.32144L0 55.5714Z" fill="#EA4F2A"/>
<path d="M132.988 31V5.8H144.436C147.172 5.8 149.584 6.328 151.672 7.384C153.76 8.416 155.392 9.868 156.568 11.74C157.744 13.612 158.332 15.832 158.332 18.4C158.332 20.944 157.744 23.164 156.568 25.06C155.392 26.932 153.76 28.396 151.672 29.452C149.584 30.484 147.172 31 144.436 31H132.988ZM138.82 26.212H144.148C145.828 26.212 147.28 25.9 148.504 25.276C149.752 24.628 150.712 23.716 151.384 22.54C152.08 21.364 152.428 19.984 152.428 18.4C152.428 16.792 152.08 15.412 151.384 14.26C150.712 13.084 149.752 12.184 148.504 11.56C147.28 10.912 145.828 10.588 144.148 10.588H138.82V26.212ZM162.73 31V5.8H168.562V31H162.73ZM181.997 31L171.125 5.8H177.425L186.929 28.12H183.221L192.869 5.8H198.665L187.757 31H181.997ZM200.769 31V5.8H206.601V31H200.769ZM212.582 31V5.8H217.406L232.274 23.944H229.934V5.8H235.694V31H230.906L216.002 12.856H218.342V31H212.582ZM253.896 31.432C251.904 31.432 250.056 31.108 248.352 30.46C246.672 29.812 245.208 28.9 243.96 27.724C242.736 26.548 241.776 25.168 241.08 23.584C240.408 22 240.072 20.272 240.072 18.4C240.072 16.528 240.408 14.8 241.08 13.216C241.776 11.632 242.748 10.252 243.996 9.076C245.244 7.9 246.708 6.988 248.388 6.34C250.068 5.692 251.892 5.368 253.86 5.368C255.852 5.368 257.676 5.692 259.332 6.34C261.012 6.988 262.464 7.9 263.688 9.076C264.936 10.252 265.908 11.632 266.604 13.216C267.3 14.776 267.648 16.504 267.648 18.4C267.648 20.272 267.3 22.012 266.604 23.62C265.908 25.204 264.936 26.584 263.688 27.76C262.464 28.912 261.012 29.812 259.332 30.46C257.676 31.108 255.864 31.432 253.896 31.432ZM253.86 26.464C254.988 26.464 256.02 26.272 256.956 25.888C257.916 25.504 258.756 24.952 259.476 24.232C260.196 23.512 260.748 22.66 261.132 21.676C261.54 20.692 261.744 19.6 261.744 18.4C261.744 17.2 261.54 16.108 261.132 15.124C260.748 14.14 260.196 13.288 259.476 12.568C258.78 11.848 257.952 11.296 256.992 10.912C256.032 10.528 254.988 10.336 253.86 10.336C252.732 10.336 251.688 10.528 250.728 10.912C249.792 11.296 248.964 11.848 248.244 12.568C247.524 13.288 246.96 14.14 246.552 15.124C246.168 16.108 245.976 17.2 245.976 18.4C245.976 19.576 246.168 20.668 246.552 21.676C246.96 22.66 247.512 23.512 248.208 24.232C248.928 24.952 249.768 25.504 250.728 25.888C251.688 26.272 252.732 26.464 253.86 26.464ZM280.311 31.432C278.295 31.432 276.363 31.168 274.515 30.64C272.667 30.088 271.179 29.38 270.051 28.516L272.031 24.124C273.111 24.892 274.383 25.528 275.847 26.032C277.335 26.512 278.835 26.752 280.347 26.752C281.499 26.752 282.423 26.644 283.119 26.428C283.839 26.188 284.367 25.864 284.703 25.456C285.039 25.048 285.207 24.58 285.207 24.052C285.207 23.38 284.943 22.852 284.415 22.468C283.887 22.06 283.191 21.736 282.327 21.496C281.463 21.232 280.503 20.992 279.447 20.776C278.415 20.536 277.371 20.248 276.315 19.912C275.283 19.576 274.335 19.144 273.471 18.616C272.607 18.088 271.899 17.392 271.347 16.528C270.819 15.664 270.555 14.56 270.555 13.216C270.555 11.776 270.939 10.468 271.707 9.292C272.499 8.092 273.675 7.144 275.235 6.448C276.819 5.728 278.799 5.368 281.175 5.368C282.759 5.368 284.319 5.56 285.855 5.944C287.391 6.304 288.747 6.856 289.923 7.6L288.123 12.028C286.947 11.356 285.771 10.864 284.595 10.552C283.419 10.216 282.267 10.048 281.139 10.048C280.011 10.048 279.087 10.18 278.367 10.444C277.647 10.708 277.131 11.056 276.819 11.488C276.507 11.896 276.351 12.376 276.351 12.928C276.351 13.576 276.615 14.104 277.143 14.512C277.671 14.896 278.367 15.208 279.231 15.448C280.095 15.688 281.043 15.928 282.075 16.168C283.131 16.408 284.175 16.684 285.207 16.996C286.263 17.308 287.223 17.728 288.087 18.256C288.951 18.784 289.647 19.48 290.175 20.344C290.727 21.208 291.003 22.3 291.003 23.62C291.003 25.036 290.607 26.332 289.815 27.508C289.023 28.684 287.835 29.632 286.251 30.352C284.691 31.072 282.711 31.432 280.311 31.432ZM166.322 51V39.64H161.842V37H174.042V39.64H169.562V51H166.322ZM178.765 42.64H185.505V45.16H178.765V42.64ZM179.005 48.4H186.625V51H175.785V37H186.365V39.6H179.005V48.4ZM189.203 51V37H192.443V48.36H199.463V51H189.203ZM210.873 37H214.113V51H210.873V37ZM204.513 51H201.273V37H204.513V51ZM211.113 45.26H204.273V42.52H211.113V45.26ZM215.586 51L221.826 37H225.026L231.286 51H227.886L222.766 38.64H224.046L218.906 51H215.586ZM218.706 48L219.566 45.54H226.766L227.646 48H218.706ZM232.738 51V37H239.098C240.618 37 241.958 37.2933 243.118 37.88C244.278 38.4533 245.185 39.26 245.838 40.3C246.491 41.34 246.818 42.5733 246.818 44C246.818 45.4133 246.491 46.6467 245.838 47.7C245.185 48.74 244.278 49.5533 243.118 50.14C241.958 50.7133 240.618 51 239.098 51H232.738ZM235.978 48.34H238.938C239.871 48.34 240.678 48.1667 241.358 47.82C242.051 47.46 242.585 46.9533 242.958 46.3C243.345 45.6467 243.538 44.88 243.538 44C243.538 43.1067 243.345 42.34 242.958 41.7C242.585 41.0467 242.051 40.5467 241.358 40.2C240.678 39.84 239.871 39.66 238.938 39.66H235.978V48.34ZM256.062 51.24C254.955 51.24 253.928 51.06 252.982 50.7C252.048 50.34 251.235 49.8333 250.542 49.18C249.862 48.5267 249.328 47.76 248.942 46.88C248.568 46 248.382 45.04 248.382 44C248.382 42.96 248.568 42 248.942 41.12C249.328 40.24 249.868 39.4733 250.562 38.82C251.255 38.1667 252.068 37.66 253.002 37.3C253.935 36.94 254.948 36.76 256.042 36.76C257.148 36.76 258.162 36.94 259.082 37.3C260.015 37.66 260.822 38.1667 261.502 38.82C262.195 39.4733 262.735 40.24 263.122 41.12C263.508 41.9867 263.702 42.9467 263.702 44C263.702 45.04 263.508 46.0067 263.122 46.9C262.735 47.78 262.195 48.5467 261.502 49.2C260.822 49.84 260.015 50.34 259.082 50.7C258.162 51.06 257.155 51.24 256.062 51.24ZM256.042 48.48C256.668 48.48 257.242 48.3733 257.762 48.16C258.295 47.9467 258.762 47.64 259.162 47.24C259.562 46.84 259.868 46.3667 260.082 45.82C260.308 45.2733 260.422 44.6667 260.422 44C260.422 43.3333 260.308 42.7267 260.082 42.18C259.868 41.6333 259.562 41.16 259.162 40.76C258.775 40.36 258.315 40.0533 257.782 39.84C257.248 39.6267 256.668 39.52 256.042 39.52C255.415 39.52 254.835 39.6267 254.302 39.84C253.782 40.0533 253.322 40.36 252.922 40.76C252.522 41.16 252.208 41.6333 251.982 42.18C251.768 42.7267 251.662 43.3333 251.662 44C251.662 44.6533 251.768 45.26 251.982 45.82C252.208 46.3667 252.515 46.84 252.902 47.24C253.302 47.64 253.768 47.9467 254.302 48.16C254.835 48.3733 255.415 48.48 256.042 48.48ZM270.737 51.24C269.617 51.24 268.543 51.0933 267.517 50.8C266.49 50.4933 265.663 50.1 265.037 49.62L266.137 47.18C266.737 47.6067 267.443 47.96 268.257 48.24C269.083 48.5067 269.917 48.64 270.757 48.64C271.397 48.64 271.91 48.58 272.297 48.46C272.697 48.3267 272.99 48.1467 273.177 47.92C273.363 47.6933 273.457 47.4333 273.457 47.14C273.457 46.7667 273.31 46.4733 273.017 46.26C272.723 46.0333 272.337 45.8533 271.857 45.72C271.377 45.5733 270.843 45.44 270.257 45.32C269.683 45.1867 269.103 45.0267 268.517 44.84C267.943 44.6533 267.417 44.4133 266.937 44.12C266.457 43.8267 266.063 43.44 265.757 42.96C265.463 42.48 265.317 41.8667 265.317 41.12C265.317 40.32 265.53 39.5933 265.957 38.94C266.397 38.2733 267.05 37.7467 267.917 37.36C268.797 36.96 269.897 36.76 271.217 36.76C272.097 36.76 272.963 36.8667 273.817 37.08C274.67 37.28 275.423 37.5867 276.077 38L275.077 40.46C274.423 40.0867 273.77 39.8133 273.117 39.64C272.463 39.4533 271.823 39.36 271.197 39.36C270.57 39.36 270.057 39.4333 269.657 39.58C269.257 39.7267 268.97 39.92 268.797 40.16C268.623 40.3867 268.537 40.6533 268.537 40.96C268.537 41.32 268.683 41.6133 268.977 41.84C269.27 42.0533 269.657 42.2267 270.137 42.36C270.617 42.4933 271.143 42.6267 271.717 42.76C272.303 42.8933 272.883 43.0467 273.457 43.22C274.043 43.3933 274.577 43.6267 275.057 43.92C275.537 44.2133 275.923 44.6 276.217 45.08C276.523 45.56 276.677 46.1667 276.677 46.9C276.677 47.6867 276.457 48.4067 276.017 49.06C275.577 49.7133 274.917 50.24 274.037 50.64C273.17 51.04 272.07 51.24 270.737 51.24Z" fill="#fff"/>
</svg>
